# Blender v3.0.1 OBJ File: 'AE86.blend'
# www.blender.org
mtllib cartypebody1.mtl
o cartypebody1_Cube.001
v 0.514216 1.296354 0.809474
v 0.536229 1.260283 -0.187721
v 0.724203 0.953186 1.776357
v 0.765869 0.878312 -0.856946
v 0.697197 0.667778 -2.043265
v 0.697197 0.190591 -2.094844
v 0.778045 0.190591 1.981836
v 0.697197 0.936292 1.957041
v 0.000000 0.878312 -0.856946
v 0.000000 0.667778 -2.043265
v 0.000000 1.260283 -0.187721
v 0.000000 1.296354 0.809474
v 0.000000 0.953186 1.776357
v 0.000000 0.190591 -2.094844
v 0.000000 0.190591 1.981836
v 0.000000 0.936292 1.957041
v 0.792832 0.190591 1.507308
v 0.586831 0.190591 1.507308
v 0.820719 0.544767 1.338816
v 0.586831 0.544767 1.338816
v 0.792832 0.537890 0.953693
v 0.586831 0.537890 0.953693
v 0.792832 0.183713 0.774885
v 0.586831 0.183713 0.774885
v 0.759538 0.187152 -0.927225
v 0.589998 0.187152 -0.927225
v 0.799450 0.506942 -1.061330
v 0.589998 0.506942 -1.061330
v 0.799450 0.541328 -1.467086
v 0.589998 0.541328 -1.467086
v 0.759538 0.197468 -1.656209
v 0.000000 0.197468 -1.656209
v 0.589998 0.197468 -1.656209
v 0.292608 0.549544 -1.635588
v 0.292608 0.756423 -1.569151
v 0.292608 0.658787 -1.975757
v 0.292608 0.865666 -1.909320
v 0.649888 0.549544 -1.635588
v 0.649888 0.756423 -1.569151
v 0.649888 0.658787 -1.975757
v 0.649888 0.865666 -1.909320
v 0.737801 0.926741 1.133941
v 0.000000 0.926741 1.133941
v 0.000000 0.185204 0.993968
v 0.424225 0.185204 0.993968
v 0.000000 0.187152 -0.927225
v 0.722344 0.953186 1.776357
v 0.764010 0.878312 -0.856946
v 0.790972 0.537890 0.953693
v 0.790972 0.183713 0.774885
v 0.757679 0.187152 -0.927225
v 0.797590 0.506942 -1.061330
v 0.151965 0.205246 0.187845
v 0.151965 0.335724 0.229792
v 0.151965 0.357286 -0.285081
v 0.151965 0.487764 -0.243134
v 0.648730 0.205246 0.187845
v 0.648730 0.335724 0.229792
v 0.648730 0.357286 -0.285081
v 0.648730 0.487764 -0.243134
v 0.151965 1.008433 0.533261
v 0.151965 1.056577 0.383507
v 0.151965 0.301869 0.306109
v 0.151965 0.350013 0.156355
v 0.648730 1.008433 0.533261
v 0.648730 1.056577 0.383507
v 0.648730 0.301869 0.306109
v 0.648730 0.350013 0.156355
v -0.014720 0.390167 1.045809
v -0.014720 0.292195 0.472127
v -0.014720 0.448638 0.488541
v 0.564592 0.390167 1.045809
v 0.564592 0.292195 0.472127
v 0.564592 0.448638 0.488541
v -0.514216 1.296354 0.809474
v -0.536229 1.260283 -0.187721
v -0.724203 0.953186 1.776357
v -0.765869 0.878312 -0.856946
v -0.697197 0.667778 -2.043265
v -0.697197 0.190591 -2.094844
v -0.778045 0.190591 1.981836
v -0.697197 0.936292 1.957041
v -0.792832 0.190591 1.507308
v -0.586831 0.190591 1.507308
v -0.820719 0.544767 1.338816
v -0.586831 0.544767 1.338816
v -0.792832 0.537890 0.953693
v -0.586831 0.537890 0.953693
v -0.792832 0.183713 0.774885
v -0.586831 0.183713 0.774885
v -0.759538 0.187152 -0.927225
v -0.589998 0.187152 -0.927225
v -0.799450 0.506942 -1.061330
v -0.589998 0.506942 -1.061330
v -0.799450 0.541328 -1.467086
v -0.589998 0.541328 -1.467086
v -0.759538 0.197468 -1.656209
v -0.589998 0.197468 -1.656209
v -0.292608 0.549544 -1.635588
v -0.292608 0.756423 -1.569151
v -0.292608 0.658787 -1.975757
v -0.292608 0.865666 -1.909320
v -0.649888 0.549544 -1.635588
v -0.649888 0.756423 -1.569151
v -0.649888 0.658787 -1.975757
v -0.649888 0.865666 -1.909320
v -0.737801 0.926741 1.133941
v -0.424225 0.185204 0.993968
v -0.722344 0.953186 1.776357
v -0.764010 0.878312 -0.856946
v -0.790972 0.537890 0.953693
v -0.790972 0.183713 0.774885
v -0.757679 0.187152 -0.927225
v -0.797590 0.506942 -1.061330
v -0.151965 0.205246 0.187845
v -0.151965 0.335724 0.229792
v -0.151965 0.357286 -0.285081
v -0.151965 0.487764 -0.243134
v -0.648730 0.205246 0.187845
v -0.648730 0.335724 0.229792
v -0.648730 0.357286 -0.285081
v -0.648730 0.487764 -0.243134
v -0.151965 1.008433 0.533261
v -0.151965 1.056577 0.383507
v -0.151965 0.301869 0.306109
v -0.151965 0.350013 0.156355
v -0.648730 1.008433 0.533261
v -0.648730 1.056577 0.383507
v -0.648730 0.301869 0.306109
v -0.648730 0.350013 0.156355
v 0.014720 0.390167 1.045809
v 0.014720 0.292195 0.472127
v 0.014720 0.448638 0.488541
v -0.564592 0.390167 1.045809
v -0.564592 0.292195 0.472127
v -0.564592 0.448638 0.488541
vt 0.026422 0.040473
vt 0.026422 0.040473
vt 0.026422 0.040473
vt 0.026422 0.040473
vt 0.512813 0.067177
vt 0.512813 0.928185
vt 0.388430 0.698340
vt 0.382069 0.381989
vt 0.214748 0.368241
vt 0.214025 0.712261
vt 0.273783 0.024611
vt 0.258008 0.975389
vt 0.788153 0.326172
vt 0.788153 0.481837
vt 0.562037 0.481837
vt 0.562037 0.326172
vt 0.562037 0.024611
vt 0.804018 0.050832
vt 0.804018 0.276950
vt 0.562037 0.276950
vt 0.026422 0.040473
vt 0.026422 0.040473
vt 0.026422 0.040473
vt 0.026422 0.040473
vt 0.088922 0.040473
vt 0.088922 0.040473
vt 0.088922 0.040473
vt 0.088922 0.040473
vt 0.088922 0.040473
vt 0.088922 0.040473
vt 0.088922 0.040473
vt 0.088922 0.040473
vt 0.088922 0.040473
vt 0.088922 0.040473
vt 0.088922 0.040473
vt 0.088922 0.040473
vt 0.088922 0.040473
vt 0.088922 0.040473
vt 0.088922 0.040473
vt 0.088922 0.040473
vt 0.026422 0.040473
vt 0.026422 0.040473
vt 0.026422 0.040473
vt 0.026422 0.040473
vt 0.026422 0.040473
vt 0.026422 0.040473
vt 0.026422 0.040473
vt 0.026422 0.040473
vt 0.026422 0.040473
vt 0.026422 0.040473
vt 0.088922 0.040473
vt 0.088922 0.040473
vt 0.088922 0.040473
vt 0.088922 0.040473
vt 0.027720 0.039722
vt 0.027720 0.039722
vt 0.027720 0.039722
vt 0.027720 0.039722
vt 0.837377 0.326172
vt 0.907847 0.326172
vt 0.907847 0.442046
vt 0.837377 0.442046
vt 0.027720 0.039722
vt 0.027720 0.039722
vt 0.027720 0.039722
vt 0.027720 0.039722
vt 0.088647 0.039997
vt 0.088647 0.039997
vt 0.088647 0.039997
vt 0.088647 0.039997
vt 0.088647 0.039997
vt 0.088647 0.039997
vt 0.088443 0.040230
vt 0.088443 0.040230
vt 0.088443 0.040230
vt 0.088443 0.040230
vt 0.088583 0.039656
vt 0.088583 0.039656
vt 0.088583 0.039656
vt 0.088583 0.039656
vt 0.088555 0.040473
vt 0.088555 0.040473
vt 0.088555 0.040473
vt 0.088555 0.040473
vt 0.088555 0.040473
vt 0.088555 0.040473
vt 0.086340 0.040810
vt 0.086340 0.040810
vt 0.086340 0.040810
vt 0.086340 0.040810
vt 0.086340 0.040810
vt 0.086340 0.040810
vt 0.086340 0.040810
vt 0.086340 0.040810
vt 0.086340 0.040810
vt 0.086340 0.040810
vt 0.086340 0.040810
vt 0.086340 0.040810
vt 0.086340 0.040810
vt 0.086340 0.040810
vt 0.086340 0.040810
vt 0.086340 0.040810
vt 0.086340 0.040810
vt 0.086340 0.040810
vt 0.086340 0.040810
vt 0.086340 0.040810
vt 0.086340 0.040810
vt 0.086340 0.040810
vt 0.087736 0.039211
vt 0.087736 0.039211
vt 0.087736 0.039211
vt 0.087736 0.039211
vt 0.026422 0.040473
vt 0.026422 0.040473
vt 0.512813 0.067177
vt 0.382069 0.381989
vt 0.388430 0.698340
vt 0.512813 0.928185
vt 0.788153 0.326172
vt 0.788153 0.481837
vt 0.562037 0.024611
vt 0.804018 0.050832
vt 0.026422 0.040473
vt 0.026422 0.040473
vt 0.088922 0.040473
vt 0.088922 0.040473
vt 0.088922 0.040473
vt 0.088922 0.040473
vt 0.088922 0.040473
vt 0.088922 0.040473
vt 0.088922 0.040473
vt 0.088922 0.040473
vt 0.088922 0.040473
vt 0.088922 0.040473
vt 0.088922 0.040473
vt 0.088922 0.040473
vt 0.088922 0.040473
vt 0.088922 0.040473
vt 0.088922 0.040473
vt 0.088922 0.040473
vt 0.026422 0.040473
vt 0.026422 0.040473
vt 0.026422 0.040473
vt 0.026422 0.040473
vt 0.026422 0.040473
vt 0.026422 0.040473
vt 0.026422 0.040473
vt 0.026422 0.040473
vt 0.026422 0.040473
vt 0.026422 0.040473
vt 0.088922 0.040473
vt 0.088922 0.040473
vt 0.027720 0.039722
vt 0.027720 0.039722
vt 0.027720 0.039722
vt 0.027720 0.039722
vt 0.837377 0.326172
vt 0.837377 0.442046
vt 0.907847 0.442046
vt 0.907847 0.326172
vt 0.027720 0.039722
vt 0.027720 0.039722
vt 0.027720 0.039722
vt 0.027720 0.039722
vt 0.088647 0.039997
vt 0.088647 0.039997
vt 0.088647 0.039997
vt 0.088443 0.040230
vt 0.088443 0.040230
vt 0.088443 0.040230
vt 0.088583 0.039656
vt 0.088583 0.039656
vt 0.088555 0.040473
vt 0.088555 0.040473
vt 0.088555 0.040473
vt 0.088555 0.040473
vt 0.088555 0.040473
vt 0.088555 0.040473
vt 0.086340 0.040810
vt 0.086340 0.040810
vt 0.086340 0.040810
vt 0.086340 0.040810
vt 0.086340 0.040810
vt 0.086340 0.040810
vt 0.086340 0.040810
vt 0.086340 0.040810
vt 0.086340 0.040810
vt 0.086340 0.040810
vt 0.086340 0.040810
vt 0.086340 0.040810
vt 0.086340 0.040810
vt 0.086340 0.040810
vt 0.086340 0.040810
vt 0.086340 0.040810
vt 0.086340 0.040810
vt 0.086340 0.040810
vt 0.086340 0.040810
vt 0.086340 0.040810
vt 0.086340 0.040810
vt 0.086340 0.040810
vt 0.087736 0.039211
vt 0.087736 0.039211
vt 0.087736 0.039211
vt 0.087736 0.039211
vn 0.0000 0.9846 -0.1747
vn 0.8553 0.5182 -0.0008
vn 0.0000 0.9993 -0.0361
vn 0.0000 0.9424 0.3345
vn 0.0000 0.8685 -0.4957
vn 0.0000 0.1075 -0.9942
vn 0.0000 0.0332 0.9994
vn 0.0000 0.9957 0.0931
vn 0.0000 -0.4296 -0.9030
vn 0.0000 -0.9998 0.0179
vn 0.0000 -0.4507 0.8927
vn 0.0000 -0.3867 -0.9222
vn 0.0000 -0.9964 -0.0844
vn 0.0000 -0.4819 0.8762
vn 1.0000 0.0000 0.0000
vn 0.9871 -0.0010 -0.1602
vn 0.9740 0.2165 -0.0660
vn 0.9900 0.1405 0.0117
vn 0.9998 0.0099 -0.0195
vn 0.9999 -0.0095 0.0034
vn 0.9872 0.1026 0.1220
vn 0.9813 0.1116 0.1571
vn 0.9498 0.3039 -0.0742
vn 0.9975 -0.0638 0.0311
vn -0.0018 -1.0000 -0.0020
vn 0.0000 -1.0000 -0.0000
vn 0.0000 -0.9999 0.0157
vn 0.0000 -1.0000 -0.0020
vn 0.0076 -0.9999 0.0094
vn -0.0117 -0.9999 0.0000
vn 0.0222 -0.9997 -0.0141
vn -1.0000 0.0000 0.0000
vn 0.0000 0.3058 -0.9521
vn 0.0000 0.9521 0.3058
vn 0.0000 0.9992 -0.0411
vn 0.0000 0.1855 -0.9826
vn 0.0000 0.4822 -0.8761
vn 0.1892 0.0619 0.9800
vn 0.0000 0.3061 -0.9520
vn 0.0000 -0.3061 0.9520
vn 0.0000 0.9520 0.3061
vn 0.0000 -0.9520 -0.3061
vn 0.0000 0.1044 -0.9945
vn 0.0000 0.9945 0.1044
vn -0.5678 0.5173 -0.6404
vn -0.8553 0.5182 -0.0008
vn -0.9871 -0.0010 -0.1602
vn -0.9740 0.2165 -0.0660
vn -0.9900 0.1405 0.0117
vn -0.9998 0.0099 -0.0195
vn -0.9999 -0.0095 0.0034
vn -0.9872 0.1026 0.1220
vn -0.9813 0.1116 0.1571
vn -0.9498 0.3039 -0.0742
vn -0.9975 -0.0638 0.0311
vn 0.0018 -1.0000 -0.0020
vn -0.0076 -0.9999 0.0094
vn 0.0117 -0.9999 0.0000
vn -0.0222 -0.9997 -0.0141
vn -0.1892 0.0619 0.9800
vn 0.5678 0.5173 -0.6404
usemtl Material
s off
f 4/1/1 5/2/1 10/3/1 9/4/1
f 3/5/2 4/6/2 2/7/2 1/8/2
f 12/9/3 1/8/3 2/7/3 11/10/3
f 3/5/4 1/8/4 12/9/4 13/11/4
f 2/7/5 4/6/5 9/12/5 11/10/5
f 5/13/6 6/14/6 14/15/6 10/16/6
f 7/17/7 8/18/7 16/19/7 15/20/7
f 8/21/8 3/22/8 13/23/8 16/24/8
f 17/25/9 18/26/9 20/27/9 19/28/9
f 19/28/10 20/27/10 22/29/10 21/30/10
f 21/30/11 22/29/11 24/31/11 23/32/11
f 25/33/12 26/34/12 28/35/12 27/36/12
f 27/36/13 28/35/13 30/37/13 29/38/13
f 29/38/14 30/37/14 33/39/14 31/40/14
f 26/34/15 33/39/15 30/37/15 28/35/15
f 5/2/16 29/41/16 31/42/16 6/43/16
f 4/1/17 27/44/17 29/41/17 5/2/17
f 3/22/18 21/45/18 4/1/18
f 25/46/19 21/45/19 23/47/19
f 25/46/20 27/44/20 4/1/20 21/45/20
f 7/48/21 19/49/21 3/22/21
f 3/22/22 8/21/22 7/48/22
f 19/49/23 21/45/23 3/22/23
f 17/50/24 19/49/24 7/48/24
f 18/26/15 24/31/15 22/29/15 20/27/15
f 14/51/25 26/34/25 24/31/25
f 18/26/26 17/25/26 7/52/26
f 14/51/27 6/53/27 33/39/27
f 6/53/27 31/40/27 33/39/27
f 18/26/26 7/52/26 15/54/26
f 25/33/28 23/32/28 24/31/28
f 24/31/29 18/26/29 15/54/29
f 15/54/30 14/51/30 24/31/30
f 14/51/31 33/39/31 26/34/31
f 26/34/28 25/33/28 24/31/28
f 34/55/32 35/56/32 37/57/32 36/58/32
f 36/59/33 37/60/33 41/61/33 40/62/33
f 40/63/15 41/64/15 39/65/15 38/66/15
f 41/64/34 37/57/34 35/56/34 39/65/34
f 13/67/35 3/68/35 42/69/35 43/70/35
f 43/70/36 42/69/36 45/71/36 44/72/36
f 4/73/37 27/74/37 28/75/37 9/76/37
f 46/77/38 26/78/38 28/79/38 9/80/38
f 47/81/18 49/82/18 48/83/18
f 51/84/19 49/82/19 50/85/19
f 51/84/20 52/86/20 48/83/20 49/82/20
f 53/87/32 54/88/32 56/89/32 55/90/32
f 55/90/39 56/89/39 60/91/39 59/92/39
f 59/92/15 60/91/15 58/93/15 57/94/15
f 57/94/40 58/93/40 54/88/40 53/87/40
f 60/91/41 56/89/41 54/88/41 58/93/41
f 61/95/32 62/96/32 64/97/32 63/98/32
f 63/98/42 64/97/42 68/99/42 67/100/42
f 67/100/15 68/99/15 66/101/15 65/102/15
f 65/102/41 66/101/41 62/96/41 61/95/41
f 63/98/40 67/100/40 65/102/40 61/95/40
f 68/99/39 64/97/39 62/96/39 66/101/39
f 70/103/43 71/104/43 74/105/43 73/106/43
f 74/105/44 71/104/44 69/107/44 72/108/44
f 45/109/45 42/110/45 49/111/45 22/112/45
f 78/113/1 9/4/1 10/3/1 79/114/1
f 77/115/46 75/116/46 76/117/46 78/118/46
f 12/9/3 11/10/3 76/117/3 75/116/3
f 77/115/4 13/11/4 12/9/4 75/116/4
f 76/117/5 11/10/5 9/12/5 78/118/5
f 79/119/6 10/16/6 14/15/6 80/120/6
f 81/121/7 15/20/7 16/19/7 82/122/7
f 82/123/8 16/24/8 13/23/8 77/124/8
f 83/125/9 85/126/9 86/127/9 84/128/9
f 85/126/10 87/129/10 88/130/10 86/127/10
f 87/129/11 89/131/11 90/132/11 88/130/11
f 91/133/12 93/134/12 94/135/12 92/136/12
f 93/134/13 95/137/13 96/138/13 94/135/13
f 95/137/14 97/139/14 98/140/14 96/138/14
f 92/136/32 94/135/32 96/138/32 98/140/32
f 79/114/47 80/141/47 97/142/47 95/143/47
f 78/113/48 79/114/48 95/143/48 93/144/48
f 77/124/49 78/113/49 87/145/49
f 91/146/50 89/147/50 87/145/50
f 91/146/51 87/145/51 78/113/51 93/144/51
f 81/148/52 77/124/52 85/149/52
f 77/124/53 81/148/53 82/123/53
f 85/149/54 77/124/54 87/145/54
f 83/150/55 81/148/55 85/149/55
f 84/128/32 86/127/32 88/130/32 90/132/32
f 14/51/56 90/132/56 92/136/56
f 84/128/26 81/151/26 83/125/26
f 14/51/27 98/140/27 80/152/27
f 80/152/27 98/140/27 97/139/27
f 84/128/26 15/54/26 81/151/26
f 91/133/28 90/132/28 89/131/28
f 90/132/57 15/54/57 84/128/57
f 15/54/58 90/132/58 14/51/58
f 14/51/59 92/136/59 98/140/59
f 92/136/28 90/132/28 91/133/28
f 99/153/15 101/154/15 102/155/15 100/156/15
f 101/157/33 105/158/33 106/159/33 102/160/33
f 105/161/32 103/162/32 104/163/32 106/164/32
f 106/164/34 104/163/34 100/156/34 102/155/34
f 13/67/35 43/70/35 107/165/35 77/166/35
f 43/70/36 44/72/36 108/167/36 107/165/36
f 78/168/37 9/76/37 94/169/37 93/170/37
f 46/77/60 9/80/60 94/171/60 92/172/60
f 109/173/49 110/174/49 111/175/49
f 113/176/50 112/177/50 111/175/50
f 113/176/51 111/175/51 110/174/51 114/178/51
f 115/179/15 117/180/15 118/181/15 116/182/15
f 117/180/39 121/183/39 122/184/39 118/181/39
f 121/183/32 119/185/32 120/186/32 122/184/32
f 119/185/40 115/179/40 116/182/40 120/186/40
f 122/184/41 120/186/41 116/182/41 118/181/41
f 123/187/15 125/188/15 126/189/15 124/190/15
f 125/188/42 129/191/42 130/192/42 126/189/42
f 129/191/32 127/193/32 128/194/32 130/192/32
f 127/193/41 123/187/41 124/190/41 128/194/41
f 125/188/40 123/187/40 127/193/40 129/191/40
f 130/192/39 128/194/39 124/190/39 126/189/39
f 132/195/43 135/196/43 136/197/43 133/198/43
f 136/197/44 134/199/44 131/200/44 133/198/44
f 108/201/61 88/202/61 111/203/61 107/204/61
l 31 32
l 97 32
